<?xml version="1.0" standalone="no"?>
<!DOCTYPE svg PUBLIC "-//W3C//DTD SVG 20010904//EN" "http://www.w3.org/TR/2001/REC-SVG-20010904/DTD/svg10.dtd">
<svg version="1.0" xmlns="http://www.w3.org/2000/svg" width="3840.000000pt" height="2160.000000pt"
    viewBox="0 0 3840.000000 2160.000000" preserveAspectRatio="xMidYMid meet">

    <g transform="translate(0.000000,2160.000000) scale(0.100000,-0.100000)" fill="#fdfdfd" stroke="none">
        <path d="M18790 21249 c-1402 -84 -2719 -563 -3835 -1396 -1576 -1175 -2598
-2951 -2814 -4892 -207 -1852 298 -3671 1425 -5138 349 -453 815 -923 1262
-1270 606 -472 1294 -848 2017 -1104 109 -38 129 -42 220 -43 172 -1 274 53
337 181 l33 68 -3 704 c-1 388 -4 706 -6 709 -2 2 -62 -6 -133 -17 -232 -37
-430 -53 -653 -54 -305 0 -517 29 -740 103 -230 75 -398 176 -556 334 -131
131 -199 236 -294 456 -112 259 -261 514 -429 730 -106 138 -205 229 -337 310
-184 115 -304 241 -304 322 0 39 35 74 98 99 51 21 74 23 227 24 199 0 263
-14 430 -94 251 -121 495 -357 685 -661 205 -329 476 -559 780 -663 148 -51
271 -70 450 -71 246 -1 489 47 720 141 l95 39 26 131 c64 315 190 578 363 756
36 37 60 67 53 67 -37 0 -454 65 -582 91 -448 90 -839 224 -1149 395 -868 479
-1340 1271 -1461 2454 -25 241 -31 692 -11 875 37 344 127 659 270 950 112
227 262 452 400 603 38 42 39 45 29 80 -6 20 -25 84 -43 142 -93 312 -111 714
-49 1084 40 235 147 595 186 624 29 21 231 19 368 -4 407 -68 899 -285 1448
-639 l128 -83 152 39 c379 96 779 158 1217 189 190 13 807 5 1000 -14 358 -34
723 -96 1033 -175 l150 -38 151 97 c649 417 1219 642 1631 644 170 1 166 2
203 -96 113 -300 170 -589 179 -908 9 -299 -23 -546 -102 -788 l-34 -106 68
-80 c358 -424 566 -901 636 -1456 19 -154 26 -481 14 -695 -81 -1468 -676
-2398 -1828 -2860 -386 -155 -756 -242 -1359 -321 l-43 -5 69 -74 c228 -240
373 -617 398 -1035 4 -58 7 -591 8 -1185 l1 -1080 28 -57 c58 -119 178 -188
326 -188 85 0 145 16 343 90 629 236 1245 573 1775 972 1570 1179 2586 2951
2803 4887 32 289 42 489 43 811 0 318 -10 504 -44 801 -232 2079 -1389 3965
-3144 5124 -1176 777 -2537 1181 -3950 1173 -132 0 -301 -5 -375 -9z" />
        <path d="M9880 6633 c-252 -24 -363 -41 -520 -80 -956 -232 -1537 -922 -1744
-2073 -57 -316 -76 -530 -83 -945 -11 -687 51 -1164 214 -1640 56 -163 191
-440 276 -568 279 -414 640 -683 1137 -847 348 -115 699 -163 1180 -163 448 0
790 54 1168 184 216 74 514 216 577 275 l25 23 0 1541 0 1541 -25 24 -24 25
-1018 0 c-784 -1 -1022 -3 -1034 -13 -38 -29 -39 -43 -39 -561 l0 -505 24 -28
24 -28 404 -5 403 -5 3 -592 c2 -563 1 -593 -16 -602 -44 -24 -286 -48 -547
-55 -450 -11 -743 89 -981 336 -222 230 -356 570 -420 1068 -21 167 -30 688
-15 875 63 767 300 1224 749 1449 234 117 522 164 942 153 361 -10 602 -46
870 -129 74 -23 148 -41 163 -41 43 0 74 37 88 102 6 31 56 245 111 476 55
231 100 433 99 449 0 40 -34 72 -126 116 -253 123 -643 205 -1135 240 -132 9
-647 12 -730 3z" />
        <path d="M17865 6385 l-25 -24 0 -2935 0 -2935 24 -28 24 -28 591 0 590 0 23
23 23 23 5 1262 5 1262 858 0 858 0 -1 -1248 c0 -1374 -4 -1293 61 -1316 22
-8 208 -11 591 -11 598 0 601 0 628 49 7 14 10 959 10 2949 l0 2929 -25 27
-24 26 -588 0 c-652 0 -620 3 -643 -65 -9 -27 -11 -307 -8 -1098 l3 -1062
-862 -3 -863 -2 0 1090 0 1091 -25 24 -24 25 -591 0 -591 0 -24 -25z" />
        <path d="M27015 6384 l-25 -27 0 -2933 0 -2933 24 -28 24 -28 408 -3 c296 -2
416 1 437 9 40 17 56 54 74 182 9 61 18 114 19 115 1 2 44 -26 96 -63 113 -82
335 -193 478 -239 376 -122 803 -150 1171 -76 721 145 1077 732 1138 1875 39
726 -34 1251 -228 1650 -141 289 -359 505 -631 625 -104 46 -269 92 -401 111
-128 19 -432 16 -569 -5 -239 -36 -436 -96 -636 -195 l-114 -56 0 991 0 992
-26 31 -26 31 -594 0 -595 0 -24 -26z m2080 -2819 c308 -65 467 -340 494 -850
11 -214 0 -561 -24 -733 -51 -364 -160 -526 -395 -589 -82 -22 -350 -24 -455
-4 -149 28 -306 82 -410 139 l-50 27 0 920 0 920 65 32 c129 65 309 123 437
142 94 14 262 12 338 -4z" />
        <path d="M13245 6265 c-142 -31 -259 -98 -367 -213 -275 -291 -258 -745 39
-1022 128 -120 305 -190 478 -190 422 0 761 388 705 808 -23 177 -80 291 -210
423 -71 72 -100 94 -180 133 -52 25 -126 53 -165 61 -85 18 -219 18 -300 0z" />
        <path d="M15132 5664 l-22 -15 0 -584 0 -585 -22 -5 c-203 -47 -570 -138 -591
-147 -58 -23 -57 -18 -57 -444 l0 -391 26 -27 27 -26 308 0 309 0 0 -944 c0
-1100 1 -1116 87 -1381 108 -333 352 -575 698 -693 370 -126 938 -122 1353 9
62 20 62 23 62 483 l0 416 -29 32 -28 32 -179 -11 c-198 -13 -311 -6 -412 25
-168 53 -263 166 -283 340 -5 43 -8 439 -7 882 l3 805 431 3 431 2 27 26 26
27 0 483 0 483 -24 28 -24 28 -436 3 -436 3 0 564 0 564 -22 15 c-20 14 -94
16 -608 16 -514 0 -588 -2 -608 -16z" />
        <path d="M12803 4510 c-13 -5 -32 -24 -43 -42 -20 -33 -20 -50 -20 -1981 0
-2151 -5 -1992 63 -2032 31 -19 54 -20 587 -20 522 0 558 1 584 18 60 39 56
-90 56 2042 l0 1955 -29 32 -29 33 -574 2 c-328 1 -583 -2 -595 -7z" />
        <path d="M22708 4481 l-33 -29 0 -1459 c0 -1350 1 -1467 18 -1576 52 -345 147
-557 332 -742 194 -194 436 -296 810 -341 155 -18 484 -21 605 -5 347 47 677
161 997 346 l62 36 6 -38 c30 -180 35 -198 61 -221 l26 -23 390 3 390 3 24 28
24 28 0 1969 c0 1229 -4 1978 -10 1994 -21 56 -19 56 -630 56 -609 0 -603 1
-628 -55 -9 -20 -12 -368 -12 -1455 l0 -1429 -62 -36 c-193 -114 -432 -173
-657 -162 -281 13 -398 112 -441 373 -6 36 -10 576 -10 1372 0 1445 4 1358
-61 1381 -22 8 -210 11 -600 11 l-569 0 -32 -29z" />
    </g>
</svg>