<svg height="73" viewBox="0 0 73 73" width="73" xmlns="http://www.w3.org/2000/svg"><g fill="none" fill-rule="nonzero"><rect fill="#fff" height="71" rx="14" stroke="#640b47" stroke-width="2" width="71" x="1" y="1"/><g fill="#e535ab" transform="translate(13 11)"><path d="m12.805315-.570817h2.190135v42.25906h-2.190135z" transform="matrix(-.86601905 -.500011 .500011 -.86601905 15.658797 45.313295)"/><path d="m1.952694 35.385979h42.259989v2.190184h-42.259989z"/><path d="m1.701342 40.675152h24.408136v2.190135h-24.408136z" transform="matrix(-.86601905 -.500011 .500011 -.86601905 5.062191 84.896882)"/><path d="m20.063842 8.867484h24.408136v2.190135h-24.408136z" transform="matrix(-.86601905 -.500011 .500011 -.86601905 55.231149 34.724622)"/><path d="m12.8162-2.249855h2.190135v24.408136h-2.190135z" transform="matrix(-.500011 -.86601905 .86601905 -.500011 12.246517 26.978852)"/><path d="m11.153408 19.464041h42.25906v2.190135h-42.25906z" transform="matrix(-.500011 -.86601905 .86601905 -.500011 30.620182 58.796529)"/><path d="m3.628316 13.655663h2.190184v24.408673h-2.190184z"/><path d="m40.360071 13.655663h2.190184v24.408673h-2.190184z"/><path d="m31.311282 31.143801h1.91307v21.228482h-1.91307z" transform="matrix(-.500011 -.86601905 .86601905 -.500011 12.238821 90.582067)"/><path d="m45.4529077 38.7768058c-1.2666122 2.2033775-4.090102 2.9554285-6.2934795 1.6888163-2.2033775-1.2666123-2.9554285-4.090102-1.6888163-6.2934796 1.2666122-2.2033775 4.090102-2.9554285 6.2934795-1.6888163 2.2165714 1.2798061 2.9686225 4.090102 1.6888163 6.2934796"/><path d="m8.69476523 17.547857c-1.26661224 2.2033775-4.09010201 2.9554285-6.29347954 1.6888163s-2.95542854-4.090102-1.68881631-6.2934795c1.26661223-2.2033776 4.090102-2.95542859 6.29347953-1.6888164 2.20337754 1.2798062 2.95542855 4.090102 1.68881632 6.2934796"/><path d="m.72566326 38.7768058c-1.26661224-2.2033776-.51456122-5.0136735 1.68881631-6.2934796 2.20337753-1.2666122 5.01367342-.5145612 6.29347953 1.6888163 1.26661224 2.2033776.51456122 5.0136735-1.68881631 6.2934796-2.21657141 1.2666122-5.0268673.5145612-6.29347953-1.6888163"/><path d="m37.4838058 17.547857c-1.2666123-2.2033776-.5145612-5.0136734 1.6888163-6.2934796 2.2033775-1.26661219 5.0136734-.5145612 6.2934795 1.6888164 1.2666123 2.2033775.5145612 5.0136734-1.6888163 6.2934795-2.2033775 1.2666122-5.0268673.5145612-6.2934795-1.6888163"/><path d="m23.0892855 51.6936118c-2.5464183 0-4.6046632-2.0582449-4.6046632-4.6046633 0-2.5464183 2.0582449-4.6046632 4.6046632-4.6046632s4.6046632 2.0582449 4.6046632 4.6046632c0 2.5332245-2.0582449 4.6046633-4.6046632 4.6046633"/><path d="m23.0892855 9.2357142c-2.5464183 0-4.6046632-2.05824488-4.6046632-4.60466322 0-2.54641835 2.0582449-4.60466323 4.6046632-4.60466323s4.6046632 2.05824488 4.6046632 4.60466323c0 2.54641834-2.0582449 4.60466322-4.6046632 4.60466322"/></g></g></svg>